On his first day on the job as a narcotics officer, a rookie cop works with a rogue detective who isn't what he appears.

Director: Antoine Fuqua
Writer: David Ayer
Stars: Denzel Washington, Ethan Hawke and Scott Glenn

INFO 
http://www.imdb.com/title/tt0139654/

Language: English / Polish

Genres: Crime | Drama | Thriller

Format : Matroska
Format version : Version 2
File size : 9.07 GiB
Duration : 2h 2mn
Overall bit rate : 10.6 Mbps
Writing application : mkvmerge v5.8.0 
Writing library : libebml v1.2.3 + libmatroska v1.3.0
Attachment : Yes / Yes / Yes / Yes / Yes
Video #1
ID : 1
Format : AVC
Format/Info : Advanced Video Codec
Format profile : High@L4.1
Format settings, CABAC : Yes
Format settings, ReFrames : 5 frames
Codec ID : V_MPEG4/ISO/AVC
Duration : 2h 2mn
Bit rate : 8 469 Kbps
Width : 1 918 pixels
Height : 810 pixels
Display aspect ratio : 2.35:1
Frame rate mode : Constant
Frame rate : 23.976 fps
Color space : YUV
Chroma subsampling : 4:2:0
Bit depth : 8 bits
Scan type : Progressive
Bits/(Pixel*Frame) : 0.227
Stream size : 7.22 GiB (80%)
Writing library : x264 
Language : English
Default : Yes
Forced : No
Color primaries : BT.709
Transfer characteristics : BT.709
Matrix coefficients : BT.709
Audio #2
ID : 2
Format : AC-3
Format/Info : Audio Coding 3
Mode extension : CM (complete main)
Format settings, Endianness : Big
Codec ID : A_AC3
Duration : 2h 2mn
Bit rate mode : Constant
Bit rate : 448 Kbps
Channel(s) : 6 channels
Channel positions : Front: L C R, Side: L R, LFE
Sampling rate : 48.0 KHz
Bit depth : 16 bits
Compression mode : Lossy
Stream size : 391 MiB (4%)
Language : Polish
Default : Yes
Forced : No
Audio #3
ID : 3
Format : DTS
Format/Info : Digital Theater Systems
Mode : 16
Format settings, Endianness : Big
Codec ID : A_DTS
Duration : 2h 2mn
Bit rate mode : Constant
Bit rate : 1 510 Kbps
Channel(s) : 6 channels
Channel positions : Front: L C R, Side: L R, LFE
Sampling rate : 48.0 KHz
Bit depth : 24 bits
Compression mode : Lossy
Stream size : 1.29 GiB (14%)
Language : English
Default : No
Forced : No